# xmcd
#
# Track frame offsets:
#	150
#	13968
#	26361
#	41617
#	53041
#	67703
#	80043
#	87924
#	99451
#	110347
#	123930
#	136478
#	149794
#	162632
#	177433
#	190091
#	200549
#	215560
#	228551
#
# Disc length: 3331 seconds
#
# Revision: 0
# Processed by: cddbd v1.5.2PL0 Copyright (c) Steve Scherf et al.
# Submitted via: EasyCDDAExtractor 11.0.3.1
#
DISCID=130d0113
DTITLE=Johnny Cash - The Definitive Collection
DYEAR=2008
DGENRE=Country
TTITLE0=Highwayman (with Willie Nelson, Waylon Jennings and Kris Kristofferson)
TTITLE1=Sixteen Tons
TTITLE2=The Night Hank Williams Came To Town (with Waylon Jennings)
TTITLE3=Get Rhythm
TTITLE4=Long Black Veil
TTITLE5=Ring Of Fire
TTITLE6=Guess Things Happen That Way
TTITLE7=I Walk The Line
TTITLE8=Cry Cry Cry
TTITLE9=As Long As I Live (with Emmylou Harris)
TTITLE10=Ballad Of A Teenage Queen (with Roseanne Cash and The Everly Brothers)
TTITLE11=Where Did We Go Right (with June Carter and The Carter Family)
TTITLE12=That Old Wheel (with Hank Williams Jr.)
TTITLE13=Cats In The Cradle
TTITLE14=Family Bible
TTITLE15=Hey Porter
TTITLE16=Goin' By The Book
TTITLE17=Wanted Man
TTITLE18=The Wanderer (with U2)
EXTD=
EXTT0=
EXTT1=
EXTT2=
EXTT3=
EXTT4=
EXTT5=
EXTT6=
EXTT7=
EXTT8=
EXTT9=
EXTT10=
EXTT11=
EXTT12=
EXTT13=
EXTT14=
EXTT15=
EXTT16=
EXTT17=
EXTT18=
PLAYORDER=
